<svg width="90" height="29" viewBox="0 0 90 29" fill="none" xmlns="http://www.w3.org/2000/svg">
<rect width="89.1139" height="28.5477" fill="black" fill-opacity="0" transform="translate(0 0.419434)"/>
<path d="M89.0968 25.1039C89.0968 27.2278 87.3378 28.9671 85.1517 28.9671H3.94506C1.75905 28.9671 0 27.2278 0 25.1039V4.28265C0 2.142 1.75905 0.419434 3.94506 0.419434H85.1688C87.3378 0.419434 89.1139 2.142 89.1139 4.28265V25.1039H89.0968Z" fill="white"/>
<rect width="17.2461" height="19.6672" fill="black" fill-opacity="0" transform="translate(5.97949 4.85107)"/>
<path d="M23.2256 19.2832C22.7474 20.3034 22.5254 20.7717 21.9277 21.6748C21.0738 22.9458 19.8783 24.5178 18.4096 24.5178C17.0946 24.5345 16.753 23.6816 14.9769 23.6816C13.2007 23.6983 12.825 24.5178 11.51 24.5178C10.0242 24.5011 8.87995 23.0963 8.04312 21.8253C5.66926 18.2965 5.43016 14.149 6.88181 11.9414C7.92358 10.3694 9.56308 9.46631 11.1001 9.46631C12.6713 9.46631 13.6618 10.3025 14.9598 10.3025C16.2236 10.3025 16.9921 9.46631 18.8024 9.46631C20.1686 9.46631 21.6203 10.2022 22.662 11.4565C19.2635 13.2794 19.81 18.0122 23.2256 19.2832Z" fill="black"/>
<rect width="4.16555" height="4.73404" fill="black" fill-opacity="0" transform="translate(14.2666 4.85107)"/>
<path d="M17.4185 8.04534C18.0846 7.20914 18.5798 6.05519 18.392 4.85107C17.316 4.91797 16.0523 5.58693 15.3179 6.47329C14.6518 7.25932 14.1053 8.44671 14.3103 9.58394C15.4887 9.61739 16.7012 8.93171 17.4185 8.04534Z" fill="black"/>
<rect width="55.7943" height="19.5839" fill="black" fill-opacity="0" transform="translate(27.0508 4.90137)"/>
<rect width="55.7943" height="12.7607" fill="black" fill-opacity="0" transform="translate(27.0508 11.7246)"/>
<path d="M30.4493 11.8926L27.0508 21.6761H28.6049L29.6125 18.6658H32.8915L33.9333 21.6761H35.5386L32.123 11.8926H30.4493ZM31.252 13.4981C31.3716 13.9329 31.4911 14.3844 31.6448 14.8862L32.567 17.4784H29.9711L30.8763 14.8694C31.0129 14.4346 31.1325 13.9831 31.252 13.4981Z" fill="black"/>
<path d="M39.9446 14.4341C38.9199 14.4341 38.0831 14.8187 37.5366 15.5713L37.4683 14.6013H36.085V14.7184C36.1191 15.3204 36.1362 15.9894 36.1362 16.9427V24.4851H37.6562V20.9731C38.1173 21.525 38.8687 21.8428 39.7226 21.8428C40.6107 21.8428 41.4133 21.5083 42.0111 20.8895C42.6771 20.2038 43.0187 19.2171 43.0187 18.0464C43.0187 17.0096 42.7113 16.1065 42.1477 15.4542C41.6012 14.7853 40.8156 14.4341 39.9446 14.4341ZM39.5689 15.6549C40.9181 15.6549 41.5158 16.8758 41.5158 18.0966C41.5158 19.6519 40.7473 20.6219 39.5006 20.6219C38.6467 20.6219 37.9294 20.0533 37.7245 19.2506C37.6903 19.1168 37.6732 18.9663 37.6732 18.7656V17.5782C37.6732 17.4778 37.6903 17.344 37.7245 17.2102C37.7245 17.1768 37.7415 17.1266 37.7415 17.0932C37.9636 16.2403 38.715 15.6549 39.5689 15.6549Z" fill="black"/>
<path d="M47.7322 14.4341C46.7075 14.4341 45.8707 14.8187 45.3242 15.5713L45.2559 14.6013H43.8896V14.7184C43.9238 15.3204 43.9409 15.9894 43.9409 16.9427V24.4851H45.4608V20.9731C45.922 21.525 46.6734 21.8428 47.5273 21.8428C48.4154 21.8428 49.218 21.5083 49.8158 20.8895C50.4818 20.2038 50.8234 19.2171 50.8234 18.0464C50.8234 17.0096 50.516 16.1065 49.9524 15.4542C49.3888 14.7853 48.6032 14.4341 47.7322 14.4341ZM47.3565 15.6549C48.7057 15.6549 49.3034 16.8758 49.3034 18.0966C49.3034 19.6519 48.5349 20.6219 47.2882 20.6219C46.4514 20.6219 45.717 20.0533 45.5121 19.2506C45.4779 19.1168 45.4608 18.9663 45.4608 18.7656V17.5782C45.4608 17.4778 45.4779 17.344 45.5121 17.2102C45.5121 17.1768 45.5292 17.1266 45.5292 17.0932C45.7512 16.2403 46.5026 15.6549 47.3565 15.6549Z" fill="black"/>
<path d="M57.4839 16.0394C56.0664 15.5042 55.6223 15.0861 55.6223 14.3001C55.6223 13.6479 56.1518 12.9789 57.3472 12.9789C58.3207 12.9789 58.9526 13.3134 59.1234 13.4137L59.26 13.4973L59.6869 12.2598L59.6015 12.2096C59.3454 12.0591 58.6281 11.7246 57.3985 11.7246C55.4686 11.7246 54.1195 12.8451 54.1195 14.4339C54.1195 15.7216 54.9563 16.6247 56.7666 17.2602C58.0474 17.7285 58.5256 18.2135 58.5256 19.033C58.5256 19.9695 57.7913 20.5381 56.5958 20.5381C55.8273 20.5381 55.0246 20.3207 54.4098 19.936L54.2732 19.8524L53.8633 21.1234L53.9316 21.1736C54.4952 21.5415 55.5711 21.8091 56.4933 21.8091C59.0892 21.8091 60.0114 20.2538 60.0114 18.9326C60.0285 17.578 59.2941 16.7418 57.4839 16.0394Z" fill="black"/>
<path d="M62.7448 12.8955L61.259 13.3471V14.5846H60.166V15.772H61.259V19.4011C61.259 20.2707 61.4298 20.8895 61.7884 21.2742C62.13 21.6421 62.6424 21.8428 63.2572 21.8428C63.8207 21.8428 64.2306 21.7257 64.4185 21.6588L64.5039 21.6254L64.4356 20.438L64.2989 20.4882C64.1111 20.5383 63.9061 20.5718 63.5987 20.5718C63.0181 20.5718 62.7619 20.2039 62.7619 19.3509V15.772H64.5893V14.5846H62.7619V12.8955H62.7448Z" fill="black"/>
<path d="M68.3286 14.4341C66.2109 14.4341 64.7422 15.9727 64.7422 18.197C64.7422 20.3376 66.1768 21.8428 68.2261 21.8428H68.2432C69.9681 21.8428 71.8296 20.6554 71.8296 18.0632C71.8296 17.0096 71.5051 16.1065 70.8732 15.4375C70.2072 14.7853 69.3362 14.4341 68.3286 14.4341ZM68.2774 15.588C69.6436 15.588 70.2584 16.8925 70.2584 18.0966C70.2584 19.585 69.4216 20.6554 68.2432 20.6554H68.2261C67.0819 20.6554 66.2451 19.6018 66.2451 18.1301C66.2621 16.8758 66.877 15.588 68.2774 15.588Z" fill="black"/>
<path d="M76.4408 14.501L76.3554 14.4843C76.2188 14.4508 76.1163 14.4341 75.9797 14.4341C75.1941 14.4341 74.4768 14.8856 74.084 15.6215L74.0328 14.5846H72.6836L72.7007 14.7017C72.7348 15.287 72.7519 15.9392 72.7519 16.8256L72.7348 21.6588H74.2548V17.8792C74.2548 17.6785 74.2719 17.4778 74.2889 17.3106C74.4597 16.4075 75.0916 15.8222 75.8772 15.8222C76.0309 15.8222 76.1505 15.8389 76.2871 15.8389L76.4408 15.8556V14.501Z" fill="black"/>
<path d="M79.8395 14.4175C77.8242 14.4175 76.4238 15.9895 76.4238 18.2473C76.4238 20.4214 77.8242 21.8262 79.9932 21.8262C81.1374 21.8262 81.923 21.5753 82.3841 21.3746L82.4695 21.3412L82.1792 20.2374L82.0596 20.2876C81.6497 20.4548 81.1032 20.622 80.1639 20.622C79.515 20.622 77.995 20.4046 77.8926 18.4814L82.7769 18.4981L82.794 18.3978C82.8281 18.2473 82.8452 18.0466 82.8452 17.779C82.8452 16.2237 82.0596 14.4175 79.8395 14.4175ZM79.737 15.538C80.1981 15.538 80.5738 15.6718 80.8471 15.9561C81.274 16.3909 81.3594 17.0264 81.3594 17.3274H77.9096C78.0633 16.4745 78.6098 15.538 79.737 15.538Z" fill="black"/>
<rect width="55.6409" height="4.98369" fill="black" fill-opacity="0" transform="translate(27.0508 4.90137)"/>
<path d="M27.0508 5.20239C27.4777 5.15222 27.9559 5.10205 28.5024 5.10205C29.4759 5.10205 30.1761 5.30274 30.6372 5.67066C31.1154 6.05531 31.3886 6.59048 31.3886 7.34305C31.3886 8.09563 31.1154 8.71441 30.6372 9.14923C30.1419 9.58406 29.3222 9.81819 28.3146 9.81819C27.8193 9.81819 27.4265 9.80147 27.0679 9.76802V5.20239H27.0508ZM27.751 9.31647C27.9218 9.34992 28.1779 9.34992 28.4341 9.34992C29.8858 9.34992 30.6714 8.63079 30.6714 7.39323C30.6714 6.28945 29.9711 5.60377 28.5366 5.60377C28.1779 5.60377 27.9218 5.63722 27.7339 5.67066V9.31647H27.751Z" fill="black"/>
<path d="M33.8132 9.85211C32.8056 9.85211 32.0029 9.19987 32.0029 8.14627C32.0029 7.02577 32.8398 6.37354 33.8815 6.37354C34.9575 6.37354 35.6918 7.05922 35.6918 8.07937C35.6918 9.31694 34.7184 9.85211 33.8132 9.85211ZM33.8303 9.40056C34.4793 9.40056 34.9745 8.8654 34.9745 8.0961C34.9745 7.52748 34.65 6.82508 33.8474 6.82508C33.0447 6.82508 32.6861 7.47731 32.6861 8.11282C32.7031 8.84867 33.1642 9.40056 33.8303 9.40056Z" fill="black"/>
<path d="M36.7851 6.45715L37.2975 8.14627C37.4 8.51419 37.5024 8.86539 37.5707 9.2166H37.5878C37.6732 8.88212 37.7928 8.53092 37.9294 8.16299L38.5442 6.47388H39.1249L39.7055 8.12954C39.8421 8.51419 39.9617 8.88212 40.0471 9.2166H40.0642C40.1325 8.88212 40.2349 8.53092 40.3545 8.12954L40.8839 6.45715H41.567L40.3545 9.78521H39.7226L39.1419 8.19644C39.0053 7.81179 38.9028 7.49404 38.8004 7.09266H38.7833C38.6979 7.49404 38.5784 7.84524 38.4417 8.19644L37.8269 9.76849H37.195L36.0508 6.44043H36.7851V6.45715Z" fill="black"/>
<path d="M42.25 7.34316C42.25 6.99195 42.25 6.72437 42.2158 6.44006H42.8306L42.8648 6.97523H42.8819C43.0697 6.6742 43.5138 6.35645 44.1286 6.35645C44.658 6.35645 45.4607 6.62403 45.4607 7.77798V9.76812H44.7775V7.8616C44.7775 7.32643 44.5555 6.87489 43.9066 6.87489C43.4625 6.87489 43.1039 7.15919 42.9843 7.49367C42.9502 7.57729 42.9331 7.67763 42.9331 7.77798V9.78485H42.25V7.34316Z" fill="black"/>
<path d="M46.5713 4.90137H47.2544V9.78475H46.5713V4.90137Z" fill="black"/>
<path d="M49.9353 9.85211C48.9277 9.85211 48.125 9.19987 48.125 8.14627C48.125 7.02577 48.9618 6.37354 50.0036 6.37354C51.0795 6.37354 51.8139 7.05922 51.8139 8.07937C51.8139 9.31694 50.8404 9.85211 49.9353 9.85211ZM49.9524 9.40056C50.6013 9.40056 51.0966 8.8654 51.0966 8.0961C51.0966 7.52748 50.7721 6.82508 49.9694 6.82508C49.1668 6.82508 48.8081 7.47731 48.8081 8.11282C48.8252 8.84867 49.2863 9.40056 49.9524 9.40056Z" fill="black"/>
<path d="M55.332 8.98222C55.332 9.26653 55.349 9.55083 55.3832 9.78497H54.7684L54.7001 9.36687H54.683C54.478 9.63445 54.0682 9.86859 53.5217 9.86859C52.7531 9.86859 52.3604 9.40032 52.3604 8.91532C52.3604 8.11258 53.163 7.67776 54.6317 7.67776V7.61086C54.6317 7.34328 54.5464 6.84156 53.7778 6.84156C53.4192 6.84156 53.0606 6.92518 52.7873 7.09242L52.6336 6.69104C52.941 6.52381 53.4021 6.40674 53.8803 6.40674C55.0416 6.40674 55.3149 7.09242 55.3149 7.76137V8.98222H55.332ZM54.6659 8.07913C53.9145 8.0624 53.0606 8.17947 53.0606 8.8317C53.0606 9.23308 53.3509 9.41704 53.6924 9.41704C54.1877 9.41704 54.5122 9.14946 54.6147 8.86515C54.6317 8.79826 54.6488 8.73136 54.6488 8.66446V8.07913H54.6659Z" fill="black"/>
<path d="M59.6866 4.90137V8.9151C59.6866 9.21613 59.6866 9.55061 59.7207 9.76802H59.1059L59.0717 9.18269H59.0547C58.8497 9.55061 58.3886 9.83492 57.7738 9.83492C56.8687 9.83492 56.1514 9.14924 56.1514 8.1458C56.1514 7.0253 56.937 6.35635 57.8421 6.35635C58.4228 6.35635 58.8156 6.59048 58.9863 6.85806H59.0034V4.90137H59.6866ZM59.0034 7.81133C59.0034 7.72771 59.0034 7.62736 58.9693 7.54374C58.8668 7.15909 58.4911 6.85806 57.9787 6.85806C57.2615 6.85806 56.8516 7.40995 56.8516 8.12908C56.8516 8.81476 57.2273 9.36665 57.9617 9.36665C58.4228 9.36665 58.8497 9.09907 58.9693 8.64752C58.9863 8.5639 59.0034 8.48028 59.0034 8.37994V7.81133Z" fill="black"/>
<path d="M64.0242 9.85211C63.0165 9.85211 62.2139 9.19987 62.2139 8.14627C62.2139 7.02577 63.0507 6.37354 64.0925 6.37354C65.1684 6.37354 65.9028 7.05922 65.9028 8.07937C65.9028 9.31694 64.9293 9.85211 64.0242 9.85211ZM64.0412 9.40056C64.6902 9.40056 65.1855 8.8654 65.1855 8.0961C65.1855 7.52748 64.861 6.82508 64.0583 6.82508C63.2556 6.82508 62.897 7.47731 62.897 8.11282C62.897 8.84867 63.3752 9.40056 64.0412 9.40056Z" fill="black"/>
<path d="M66.7578 7.34316C66.7578 6.99195 66.7578 6.72437 66.7236 6.44006H67.3384L67.3726 6.97523H67.3897C67.5775 6.6742 68.0216 6.35645 68.6364 6.35645C69.1658 6.35645 69.9685 6.62403 69.9685 7.77798V9.76812H69.2854V7.8616C69.2854 7.32643 69.0633 6.87489 68.4144 6.87489C67.9703 6.87489 67.6117 7.15919 67.4922 7.49367C67.458 7.57729 67.4409 7.67763 67.4409 7.77798V9.78485H66.7578V7.34316Z" fill="black"/>
<path d="M73.5724 5.65381V6.45656H74.5629V6.92483H73.5724V8.71428C73.5724 9.13238 73.709 9.36651 74.0847 9.36651C74.2726 9.36651 74.3751 9.34979 74.4775 9.33307L74.5117 9.80134C74.3751 9.83478 74.1701 9.88495 73.8969 9.88495C73.5724 9.88495 73.3162 9.78461 73.1625 9.6341C72.9746 9.45013 72.8893 9.1491 72.8893 8.76445V6.9081H72.3086V6.43983H72.8893V5.82105L73.5724 5.65381Z" fill="black"/>
<path d="M75.3311 4.90137H76.0142V6.97513H76.0313C76.1337 6.80789 76.3045 6.64065 76.5265 6.55703C76.7315 6.43997 76.9706 6.38979 77.2267 6.38979C77.7391 6.38979 78.5417 6.65738 78.5417 7.81133V9.78475H77.8586V7.8615C77.8586 7.32633 77.6366 6.87479 76.9876 6.87479C76.5436 6.87479 76.202 7.14237 76.0654 7.47685C76.0313 7.56047 76.0142 7.64409 76.0142 7.76115V9.76802H75.3311V4.90137Z" fill="black"/>
<path d="M80.0445 8.2128C80.0615 9.03227 80.6422 9.36675 81.3253 9.36675C81.8206 9.36675 82.128 9.28313 82.3671 9.19951L82.4866 9.61761C82.2475 9.71795 81.8206 9.83502 81.2228 9.83502C80.0615 9.83502 79.3613 9.14934 79.3613 8.16263C79.3613 7.15919 80.0445 6.35645 81.1375 6.35645C82.3671 6.35645 82.6916 7.30971 82.6916 7.92849C82.6916 8.04556 82.6916 8.1459 82.6745 8.2128H80.0445ZM82.0426 7.77798C82.0426 7.39333 81.8547 6.79127 81.1033 6.79127C80.4031 6.79127 80.1128 7.35988 80.0445 7.77798H82.0426Z" fill="black"/>
</svg>
