<svg width="91" height="29" viewBox="0 0 91 29" fill="none" xmlns="http://www.w3.org/2000/svg">
<rect width="89.9791" height="28.5477" fill="black" fill-opacity="0" transform="translate(0.584961)"/>
<rect width="89.9791" height="28.5477" fill="black" fill-opacity="0" transform="translate(0.584961)"/>
<path d="M90.564 24.6913C90.564 26.8243 88.7873 28.5477 86.5884 28.5477H4.56058C2.36167 28.5477 0.584961 26.8243 0.584961 24.6913V3.85641C0.584961 1.72344 2.36167 0 4.56058 0H86.5884C88.7873 0 90.564 1.72344 90.564 3.85641V24.6913Z" fill="white"/>
<rect width="17.3799" height="19.4688" fill="black" fill-opacity="0" transform="translate(7.33984 5.42627)"/>
<path d="M7.33984 5.49414V15.1693V24.8274L17.3844 15.1693L7.33984 5.49414Z" fill="url(#paint0_linear)"/>
<path d="M20.0759 12.5589L16.0299 10.2894L7.33984 5.42627V5.49452L17.3844 15.1697L20.0759 12.5589Z" fill="url(#paint1_linear)"/>
<path d="M7.33984 24.827V24.8953L16.0299 20.0321L20.0759 17.7626L17.3844 15.1689L7.33984 24.827Z" fill="url(#paint2_linear)"/>
<path d="M20.0752 12.5586L17.3838 15.1694L20.0752 17.763L24.7193 15.1694L20.0752 12.5586Z" fill="url(#paint3_linear)"/>
<rect width="18.7697" height="10.5113" fill="black" fill-opacity="0" transform="translate(67.9062 10.8521)"/>
<path d="M70.6153 18.9403C70.2459 18.9403 69.8941 18.8721 69.5774 18.7356C69.2608 18.5991 68.9969 18.3943 68.7858 18.1042H68.7154C68.7506 18.4284 68.7858 18.7356 68.7858 19.0427V21.3634H67.9062V13.224H68.6275L68.7506 13.9918H68.7858C69.0145 13.6847 69.2784 13.4629 69.5774 13.3263C69.8765 13.1898 70.2283 13.1216 70.6153 13.1216C71.3893 13.1216 71.9698 13.3775 72.392 13.8895C72.8142 14.4014 73.0253 15.118 73.0253 16.0395C73.0253 16.9609 72.8142 17.6776 72.392 18.1895C71.9522 18.6844 71.3541 18.9403 70.6153 18.9403ZM70.4746 13.8383C69.8765 13.8383 69.4543 13.9918 69.1904 14.316C68.9265 14.6403 68.7858 15.1351 68.7858 15.8347V16.0224C68.7858 16.8074 68.9265 17.3705 69.1904 17.7117C69.4543 18.053 69.8941 18.2237 70.4922 18.2237C70.9847 18.2237 71.3893 18.0189 71.6708 17.6264C71.9522 17.234 72.093 16.6879 72.093 16.0054C72.093 15.3057 71.9522 14.7597 71.6708 14.3843C71.3893 14.026 71.0023 13.8383 70.4746 13.8383Z" fill="black"/>
<path d="M75.0485 18.8379H74.1689V10.8521H75.0485V18.8379Z" fill="black"/>
<path d="M80.0977 18.8379L79.9218 18.0359H79.8866C79.6051 18.3943 79.3061 18.6332 79.0246 18.7526C78.7432 18.8721 78.3738 18.9403 77.9516 18.9403C77.3711 18.9403 76.9313 18.8038 76.597 18.5137C76.2628 18.2237 76.1045 17.8141 76.1045 17.2851C76.1045 16.1419 77.0368 15.5617 78.9191 15.4934L79.9042 15.4593V15.118C79.9042 14.6744 79.7987 14.3502 79.6051 14.1454C79.4116 13.9406 79.095 13.8383 78.6728 13.8383C78.1978 13.8383 77.6349 13.9748 77.0368 14.2649L76.773 13.6164C77.0544 13.4629 77.3711 13.3434 77.7053 13.2581C78.0395 13.1728 78.3914 13.1216 78.7256 13.1216C79.4116 13.1216 79.9218 13.2752 80.256 13.5652C80.5903 13.8553 80.7486 14.3331 80.7486 14.9986V18.8379H80.0977ZM78.1099 18.2407C78.6552 18.2407 79.0774 18.0871 79.3941 17.7971C79.7107 17.507 79.869 17.0974 79.869 16.5685V16.0566L78.9895 16.0907C78.2858 16.1077 77.7933 16.2272 77.4766 16.4149C77.16 16.6026 77.0192 16.8927 77.0192 17.2851C77.0192 17.5923 77.1072 17.8312 77.3007 17.9848C77.4942 18.1554 77.7581 18.2407 78.1099 18.2407Z" fill="black"/>
<path d="M81.2578 13.2236H82.1901L83.4567 16.4316C83.7382 17.1654 83.9141 17.6943 83.9669 18.0186H84.002C84.0548 17.8479 84.1428 17.5408 84.2835 17.1312C84.4242 16.7046 84.9168 15.4078 85.726 13.2407H86.6759L84.1955 19.6225C83.9493 20.2539 83.6678 20.6976 83.3336 20.9706C82.9993 21.2436 82.5947 21.3631 82.1198 21.3631C81.8559 21.3631 81.592 21.3289 81.3282 21.2777V20.5952C81.5217 20.6293 81.7328 20.6634 81.9791 20.6634C82.5772 20.6634 83.0169 20.3392 83.2632 19.6737L83.5798 18.8717L81.2578 13.2236Z" fill="black"/>
<rect width="37.6278" height="12.0463" fill="black" fill-opacity="0" transform="translate(27.8867 10.2373)"/>
<path d="M54.3432 13.7347C54.6247 13.9565 55.2052 14.4343 55.2052 15.3216C55.2052 16.1919 54.695 16.6014 54.1849 16.9939C54.0266 17.1475 53.8506 17.3181 53.8506 17.574C53.8506 17.83 54.0266 17.9665 54.1673 18.086L54.6071 18.4102C55.1348 18.8538 55.6274 19.2463 55.6274 20.0654C55.6274 21.1745 54.5191 22.2837 52.4433 22.2837C50.6842 22.2837 49.8398 21.4646 49.8398 20.5943C49.8398 20.1677 50.0509 19.5705 50.7722 19.161C51.5286 18.7173 52.5489 18.6491 53.0942 18.6149C52.9183 18.4102 52.7248 18.1883 52.7248 17.8129C52.7248 17.6082 52.7776 17.4887 52.8479 17.3522C52.7072 17.3693 52.5841 17.3693 52.4609 17.3693C51.1768 17.3693 50.4555 16.4478 50.4555 15.5264C50.4555 14.9804 50.7018 14.3831 51.2295 13.9565C51.9156 13.4105 52.7424 13.3081 53.3933 13.3081H55.8912L55.1172 13.7347H54.3432ZM53.4812 18.9562C53.3757 18.9392 53.3229 18.9392 53.1998 18.9392C53.0942 18.9392 52.4433 18.9562 51.9332 19.1269C51.6693 19.2122 50.8953 19.5023 50.8953 20.3384C50.8953 21.1745 51.7397 21.7717 53.0239 21.7717C54.1849 21.7717 54.8006 21.2257 54.8006 20.509C54.8006 19.9118 54.4136 19.5876 53.4812 18.9562ZM53.8331 16.7209C54.1145 16.4478 54.1321 16.0724 54.1321 15.8677C54.1321 15.0145 53.6044 13.7006 52.6017 13.7006C52.285 13.7006 51.9508 13.8541 51.7573 14.093C51.5462 14.3319 51.4934 14.6561 51.4934 14.9633C51.4934 15.7482 51.9684 17.0621 53.0063 17.0621C53.3229 17.0621 53.6395 16.9086 53.8331 16.7209Z" fill="black"/>
<path d="M46.7092 18.7693C44.7918 18.7693 43.7539 17.3188 43.7539 16.0049C43.7539 14.4692 45.0557 13.1553 46.8851 13.1553C48.6619 13.1553 49.7701 14.5033 49.7701 15.9196C49.7877 17.3018 48.6794 18.7693 46.7092 18.7693ZM48.2221 17.8137C48.5211 17.4383 48.5915 16.9605 48.5915 16.5168C48.5915 15.4759 48.0813 13.5136 46.5861 13.5136C46.1815 13.5136 45.7945 13.6672 45.4954 13.9061C45.0205 14.3156 44.9325 14.8275 44.9325 15.3394C44.9325 16.4998 45.5306 18.4109 46.9907 18.4109C47.4657 18.428 47.9406 18.1891 48.2221 17.8137Z" fill="black"/>
<path d="M40.1477 18.7693C38.2303 18.7693 37.1924 17.3188 37.1924 16.0049C37.1924 14.4692 38.4941 13.1553 40.3236 13.1553C42.1003 13.1553 43.2086 14.5033 43.2086 15.9196C43.2262 17.3018 42.1179 18.7693 40.1477 18.7693ZM41.6606 17.8137C41.9596 17.4383 42.03 16.9605 42.03 16.5168C42.03 15.4759 41.5198 13.5136 40.0246 13.5136C39.62 13.5136 39.233 13.6672 38.9339 13.9061C38.4589 14.3156 38.371 14.8275 38.371 15.3394C38.371 16.4998 38.9691 18.4109 40.4292 18.4109C40.9041 18.428 41.3791 18.1891 41.6606 17.8137Z" fill="black"/>
<path d="M36.2777 18.5814L34.5362 18.9739C33.8325 19.0762 33.1993 19.1786 32.5308 19.1786C29.1709 19.1786 27.8867 16.7897 27.8867 14.9127C27.8867 12.6261 29.6986 10.4932 32.7947 10.4932C33.4455 10.4932 34.0788 10.5955 34.6593 10.7491C35.5741 11.0051 35.9963 11.2952 36.2601 11.4829L35.2574 12.4214L34.8352 12.5238L35.1343 12.046C34.7121 11.6535 33.9733 10.9368 32.5308 10.9368C30.6134 10.9368 29.1533 12.3531 29.1533 14.4178C29.1533 16.6361 30.8069 18.7179 33.4631 18.7179C34.2371 18.7179 34.6417 18.5643 35.0112 18.4278V16.5167L33.1817 16.6191L34.1492 16.1071H36.7351L36.4185 16.3972C36.3305 16.4655 36.3129 16.4996 36.2953 16.5849C36.2777 16.6873 36.2777 17.0286 36.2777 17.148V18.5814Z" fill="black"/>
<path d="M58.1963 18.2402C57.7917 18.2061 57.7037 18.1378 57.7037 17.6771V17.5406V11.0052C57.7037 10.9881 57.7037 10.954 57.7037 10.9369C57.7565 10.5274 57.8796 10.4591 58.249 10.2373H56.5251L55.6104 10.6639H56.5427V17.5577V17.9501C56.5427 18.189 56.4899 18.2232 56.2085 18.5815H58.3546L58.812 18.3255C58.6009 18.2914 58.4074 18.2743 58.1963 18.2402Z" fill="black"/>
<path d="M63.14 18.3597C62.9993 18.428 62.8761 18.5133 62.7354 18.5645C62.3308 18.7351 61.9262 18.7863 61.5568 18.7863C61.1698 18.7863 60.5717 18.7692 59.956 18.3256C59.094 17.7454 58.7246 16.7386 58.7246 15.8513C58.7246 14.0426 60.255 13.1382 61.4864 13.1382C61.9262 13.1382 62.366 13.2406 62.7354 13.4624C63.3335 13.8549 63.4918 14.3497 63.5798 14.6227L60.7476 15.7489L59.8153 15.8172C60.1143 17.3017 61.1522 18.172 62.3132 18.172C62.9289 18.172 63.3687 17.9672 63.7909 17.7625L63.14 18.3597ZM62.0142 14.8616C62.2429 14.7763 62.366 14.7081 62.366 14.5374C62.366 14.0767 61.8207 13.5307 61.1698 13.5307C60.6772 13.5307 59.7801 13.889 59.7801 15.1517C59.7801 15.3565 59.7977 15.5612 59.8153 15.766L62.0142 14.8616Z" fill="black"/>
<rect width="1.56563" height="0.853288" fill="black" fill-opacity="0" transform="translate(63.9492 13.1558)"/>
<path d="M64.3186 13.2411V14.009H64.2131V13.2411H63.9492V13.1558H64.5649V13.2411H64.3186Z" fill="black"/>
<path d="M65.3921 14.009V13.224L65.1458 14.009H65.0754L64.8292 13.224V14.009H64.7412V13.1558H64.8995L65.1282 13.8383L65.3569 13.1558H65.5152V14.009H65.3921Z" fill="black"/>
<rect width="30.9777" height="2.52544" fill="black" fill-opacity="0" transform="translate(27.9209 5.75049)"/>
<path d="M30.3133 8.19069H29.7152C29.7152 8.10537 29.6624 7.88354 29.5393 7.50814H28.6597C28.5366 7.88354 28.4838 8.10537 28.4838 8.19069H27.9209C27.9209 8.1395 28.0616 7.74703 28.3607 7.01329C28.6597 6.27954 28.8005 5.87001 28.8005 5.80176H29.5217C29.5217 5.87001 29.6624 6.26248 29.9263 6.99622C30.1726 7.72996 30.3133 8.12243 30.3133 8.19069ZM29.4337 7.1498C29.2226 6.51844 29.1171 6.17716 29.1171 6.12597H29.0819C29.0819 6.17716 28.9764 6.51844 28.7477 7.1498H29.4337Z" fill="black"/>
<path d="M32.7408 8.19066H32.2658C32.2658 8.13947 32.0899 7.88351 31.7381 7.38866C31.3686 6.87675 31.1751 6.53547 31.1224 6.34777H31.0872C31.1224 6.62079 31.14 6.85969 31.14 7.08151C31.14 7.38866 31.14 7.747 31.1751 8.19066H30.7178C30.7354 7.81526 30.753 7.38866 30.753 6.945C30.753 6.50135 30.7354 6.12594 30.7178 5.80173H31.2807C31.2807 5.86999 31.439 6.12594 31.7557 6.5696C32.0899 7.04739 32.2834 7.3716 32.3186 7.54224H32.3538C32.3186 7.26922 32.301 7.03032 32.301 6.80849C32.301 6.48428 32.2834 6.14301 32.2658 5.78467H32.7408C32.7232 6.09182 32.7056 6.46722 32.7056 6.92794C32.7232 7.40573 32.7232 7.81526 32.7408 8.19066Z" fill="black"/>
<path d="M35.485 6.91041C35.485 7.25169 35.3618 7.55884 35.1331 7.81479C34.9044 8.07075 34.5878 8.20726 34.1656 8.20726C33.9721 8.20726 33.7258 8.20726 33.3916 8.1902C33.4092 7.8148 33.4092 7.40526 33.4092 6.94454C33.4092 6.50088 33.4092 6.12548 33.3916 5.80127H33.7258C33.7786 5.80127 33.8666 5.80127 33.9721 5.80127C34.0777 5.80127 34.148 5.80127 34.1832 5.80127C34.6406 5.80127 34.9748 5.90365 35.1683 6.12548C35.3794 6.34731 35.485 6.60327 35.485 6.91041ZM34.9572 6.99573C34.9572 6.75684 34.8869 6.56914 34.7461 6.3985C34.6054 6.24493 34.3943 6.15961 34.0953 6.15961C34.0425 6.15961 33.9721 6.15961 33.8666 6.17667C33.8842 6.41557 33.8842 6.67152 33.8842 6.94454C33.8842 7.23463 33.8842 7.52471 33.9017 7.81479C33.9897 7.83186 34.0601 7.83186 34.148 7.83186C34.4119 7.83186 34.623 7.74654 34.7461 7.59297C34.9044 7.42233 34.9572 7.23463 34.9572 6.99573Z" fill="black"/>
<path d="M38.0005 8.1902H37.4376C37.2969 7.7636 37.1737 7.49058 37.1034 7.3882C37.033 7.28582 36.8923 7.23463 36.7339 7.23463C36.6636 7.23463 36.5932 7.23463 36.5228 7.23463C36.5228 7.54178 36.5228 7.86599 36.5404 8.1902H36.0127C36.0303 7.8148 36.0303 7.40526 36.0303 6.94454C36.0303 6.50088 36.0303 6.12548 36.0127 5.80127H36.3469C36.3821 5.80127 36.4701 5.80127 36.5756 5.80127C36.6988 5.80127 36.8043 5.80127 36.9098 5.80127C37.4904 5.80127 37.7718 5.98897 37.7718 6.38144C37.7718 6.68859 37.6135 6.89335 37.2793 7.0128V7.04693C37.4024 7.08105 37.5255 7.18344 37.6135 7.33701C37.719 7.47352 37.8422 7.7636 38.0005 8.1902ZM37.2969 6.50088C37.2969 6.26199 37.1385 6.14255 36.8043 6.14255C36.6812 6.14255 36.5756 6.14255 36.4877 6.17667C36.5053 6.36437 36.5052 6.62033 36.5052 6.91042C36.5756 6.91042 36.6284 6.91042 36.6812 6.91042C37.1034 6.91042 37.2969 6.7739 37.2969 6.50088Z" fill="black"/>
<path d="M40.7098 6.96202C40.7098 7.33742 40.5867 7.64457 40.358 7.90052C40.1293 8.13942 39.8302 8.27593 39.4784 8.27593C39.1442 8.27593 38.8627 8.15648 38.6516 7.93465C38.4229 7.71282 38.3174 7.42274 38.3174 7.0644C38.3174 6.689 38.4405 6.38185 38.6692 6.12589C38.8979 5.887 39.1969 5.75049 39.5488 5.75049C39.883 5.75049 40.1645 5.86993 40.3756 6.09176C40.6042 6.31359 40.7098 6.60368 40.7098 6.96202ZM40.1996 7.01321C40.1996 6.75725 40.1293 6.55249 40.0061 6.39891C39.8654 6.24534 39.7071 6.16002 39.5136 6.16002C39.3377 6.16002 39.1794 6.24534 39.0386 6.39891C38.9155 6.55249 38.8451 6.75725 38.8451 7.01321C38.8451 7.26916 38.9155 7.47393 39.0562 7.6275C39.1969 7.78108 39.3553 7.8664 39.5488 7.8664C39.7247 7.8664 39.883 7.78108 40.0237 7.6275C40.1293 7.45687 40.1996 7.2521 40.1996 7.01321Z" fill="black"/>
<path d="M41.7826 8.1902H41.2549C41.2725 7.8148 41.2725 7.3882 41.2725 6.94454C41.2725 6.50088 41.2725 6.12548 41.2549 5.80127H41.7826C41.765 6.10842 41.765 6.48382 41.765 6.94454C41.765 7.40526 41.765 7.8148 41.7826 8.1902Z" fill="black"/>
<path d="M44.5269 6.91041C44.5269 7.25169 44.4038 7.55884 44.1751 7.81479C43.9464 8.07075 43.6298 8.20726 43.2076 8.20726C43.0141 8.20726 42.7678 8.20726 42.4336 8.1902C42.4512 7.8148 42.4512 7.40526 42.4512 6.94454C42.4512 6.50088 42.4512 6.12548 42.4336 5.80127H42.7678C42.8206 5.80127 42.9086 5.80127 43.0141 5.80127C43.1197 5.80127 43.19 5.80127 43.2252 5.80127C43.6826 5.80127 44.0168 5.90365 44.2103 6.12548C44.4214 6.34731 44.5269 6.60327 44.5269 6.91041ZM43.9992 6.99573C43.9992 6.75684 43.9288 6.56914 43.7881 6.3985C43.6474 6.24493 43.4363 6.15961 43.1372 6.15961C43.0845 6.15961 43.0141 6.15961 42.9086 6.17667C42.9261 6.41557 42.9261 6.67152 42.9261 6.94454C42.9261 7.23463 42.9261 7.52471 42.9437 7.81479C43.0317 7.83186 43.1021 7.83186 43.19 7.83186C43.4539 7.83186 43.665 7.74654 43.7881 7.59297C43.9464 7.42233 43.9992 7.23463 43.9992 6.99573Z" fill="black"/>
<path d="M48.1502 8.1902H47.5521C47.5521 8.10488 47.4993 7.88305 47.3762 7.50765H46.4966C46.3735 7.88305 46.3207 8.10488 46.3207 8.1902H45.7578C45.7578 8.13901 45.8985 7.74654 46.1976 7.0128C46.4966 6.27906 46.6374 5.86952 46.6374 5.80127H47.3586C47.3586 5.86952 47.4993 6.26199 47.7632 6.99573C48.0271 7.72948 48.1502 8.12194 48.1502 8.1902ZM47.2883 7.14931C47.0772 6.51795 46.9716 6.17667 46.9716 6.12548H46.9364C46.9364 6.17667 46.8309 6.51795 46.6022 7.14931H47.2883Z" fill="black"/>
<path d="M50.3666 6.43263C50.3666 6.72271 50.261 6.94454 50.0323 7.08105C49.8037 7.21756 49.5398 7.28582 49.2056 7.28582C49.1528 7.28582 49.1 7.28582 49.0824 7.28582C49.0824 7.50765 49.0824 7.8148 49.1 8.1902H48.5723C48.5899 7.83186 48.5899 7.42233 48.5899 6.94454C48.5899 6.50088 48.5899 6.12548 48.5723 5.80127H48.9065C48.9593 5.80127 49.0472 5.80127 49.1704 5.80127C49.3111 5.80127 49.4166 5.80127 49.5222 5.80127C49.7685 5.80127 49.962 5.85246 50.1203 5.95484C50.2786 6.05723 50.3666 6.2108 50.3666 6.43263ZM49.874 6.53501C49.874 6.27906 49.6981 6.14255 49.3287 6.14255C49.2407 6.14255 49.1528 6.15961 49.0472 6.17667C49.0648 6.41557 49.0648 6.67152 49.0648 6.96161C49.1 6.96161 49.1352 6.96161 49.1704 6.96161C49.6453 6.96161 49.874 6.80803 49.874 6.53501Z" fill="black"/>
<path d="M52.6195 6.43263C52.6195 6.72271 52.5139 6.94454 52.2853 7.08105C52.0566 7.21756 51.7927 7.28582 51.4585 7.28582C51.4057 7.28582 51.3529 7.28582 51.3353 7.28582C51.3353 7.50765 51.3353 7.8148 51.3529 8.1902H50.8252C50.8428 7.83186 50.8428 7.42233 50.8428 6.94454C50.8428 6.50088 50.8428 6.12548 50.8252 5.80127H51.1594C51.2122 5.80127 51.3002 5.80127 51.4233 5.80127C51.564 5.80127 51.6696 5.80127 51.7751 5.80127C52.0214 5.80127 52.2149 5.85246 52.3732 5.95484C52.5491 6.05723 52.6195 6.2108 52.6195 6.43263ZM52.1445 6.53501C52.1445 6.27906 51.9686 6.14255 51.5992 6.14255C51.5113 6.14255 51.4233 6.15961 51.3177 6.17667C51.3353 6.41557 51.3353 6.67152 51.3353 6.96161C51.3705 6.96161 51.4057 6.96161 51.4409 6.96161C51.9159 6.96161 52.1445 6.80803 52.1445 6.53501Z" fill="black"/>
<path d="M56.3309 6.96202C56.3309 7.33742 56.2077 7.64457 55.9791 7.90052C55.7504 8.15648 55.4513 8.27593 55.0995 8.27593C54.7653 8.27593 54.4838 8.15648 54.2727 7.93465C54.044 7.71282 53.9385 7.42274 53.9385 7.0644C53.9385 6.689 54.0616 6.38185 54.2903 6.12589C54.519 5.887 54.818 5.75049 55.1699 5.75049C55.5041 5.75049 55.7856 5.86993 55.9967 6.09176C56.2253 6.31359 56.3309 6.60368 56.3309 6.96202ZM55.8031 7.01321C55.8031 6.75725 55.7328 6.55249 55.6096 6.39891C55.4689 6.24534 55.3106 6.16002 55.1171 6.16002C54.9412 6.16002 54.7829 6.24534 54.6421 6.39891C54.519 6.55249 54.4486 6.75725 54.4486 7.01321C54.4486 7.26916 54.519 7.47393 54.6597 7.6275C54.8004 7.78108 54.9588 7.8664 55.1523 7.8664C55.3282 7.8664 55.4865 7.78108 55.6272 7.6275C55.7504 7.45687 55.8031 7.2521 55.8031 7.01321Z" fill="black"/>
<path d="M58.899 8.19066H58.424C58.424 8.13947 58.2481 7.88351 57.8963 7.38866C57.5268 6.87675 57.3333 6.53547 57.2806 6.34777H57.2454C57.2806 6.62079 57.2982 6.85969 57.2982 7.08151C57.2982 7.38866 57.2982 7.747 57.3333 8.19066H56.876C56.8936 7.81526 56.9112 7.38866 56.9112 6.945C56.9112 6.50135 56.8936 6.12594 56.876 5.80173H57.4389C57.4389 5.86999 57.5972 6.12594 57.9139 6.5696C58.2481 7.04739 58.4416 7.3716 58.4768 7.54224H58.512C58.4768 7.26922 58.4592 7.03032 58.4592 6.80849C58.4592 6.48428 58.4592 6.14301 58.424 5.78467H58.899C58.8814 6.09182 58.8638 6.46722 58.8638 6.92794C58.8638 7.40573 58.8814 7.81526 58.899 8.19066Z" fill="black"/>
<defs>
<linearGradient id="paint0_linear" x1="12.3589" y1="5.49602" x2="12.3589" y2="24.8297" gradientUnits="userSpaceOnUse">
<stop stop-color="#257CB0"/>
<stop offset="0.2863" stop-color="#4A93B5"/>
<stop offset="0.767" stop-color="#78BCBB"/>
<stop offset="1" stop-color="#89CFBD"/>
</linearGradient>
<linearGradient id="paint1_linear" x1="7.33365" y1="10.2948" x2="20.0837" y2="10.2948" gradientUnits="userSpaceOnUse">
<stop stop-color="#52C1AD"/>
<stop offset="1" stop-color="#DEE89A"/>
</linearGradient>
<linearGradient id="paint2_linear" x1="13.7086" y1="15.1627" x2="13.7086" y2="24.8997" gradientUnits="userSpaceOnUse">
<stop stop-color="#EC413D"/>
<stop offset="0.1668" stop-color="#DA4452"/>
<stop offset="0.5748" stop-color="#B0487A"/>
<stop offset="0.8619" stop-color="#954A92"/>
<stop offset="1" stop-color="#8A4A9D"/>
</linearGradient>
<linearGradient id="paint3_linear" x1="21.0514" y1="12.5665" x2="21.0514" y2="17.7593" gradientUnits="userSpaceOnUse">
<stop stop-color="#F58879"/>
<stop offset="0.1194" stop-color="#F69079"/>
<stop offset="0.7128" stop-color="#FCB877"/>
<stop offset="1" stop-color="#FEC874"/>
</linearGradient>
</defs>
</svg>
